# xmcd
#
# Track frame offsets: 
#        150
#        15956
#        30342
#        63416
#        83524
#        102866
#        119296
#        135551
#        151141
#        175629
#        194218
#        212030
#        227509
#        257326
#        290580
#
# Disc length: 4270 seconds
#
# Revision: 0
# Processed by: cddbd v1.5.2PL0 Copyright (c) Steve Scherf et al.
# Submitted via: ExactAudioCopy v0.99pb3
#
DISCID=b810ac0f
DTITLE=Johnny Winter - Classics
DYEAR=2008
DGENRE=Bluesrock
TTITLE0=Fort-Four
TTITLE1=Rollin' And Tumblin'
TTITLE2=It's My Own Fault
TTITLE3=Mean Town Blues
TTITLE4=Shame, Shame, Shame
TTITLE5=Illustrated Man
TTITLE6=Sick And Tired
TTITLE7=Johnny Guitar
TTITLE8=I Got My Brand On You
TTITLE9=That Wouldn't Satisfy
TTITLE10=I Smell Smoke
TTITLE11=Lone Wolf
TTITLE12=I*ve Got My Mojo Working/Sen-Sa-Shun (Live)
TTITLE13=Hideaway (Live)
TTITLE14=The Sky Is Crying (Live)
EXTD=
EXTT0=
EXTT1=
EXTT2=
EXTT3=
EXTT4=
EXTT5=
EXTT6=
EXTT7=
EXTT8=
EXTT9=
EXTT10=
EXTT11=
EXTT12=
EXTT13=
EXTT14=
PLAYORDER=
